<svg xmlns="http://www.w3.org/2000/svg" viewBox="0 0 24 24" fill="none" x="0px" y="0px">
  <path fill-rule="evenodd" clip-rule="evenodd"
        d="M11.5 2.5C11.5 2.22386 11.7239 2 12 2C14.7613 2 17.262 3.11984 19.0711 4.92893C20.8802 6.73803 22 9.23871 22 12C22 12.2761 21.7761 12.5 21.5 12.5C21.2239 12.5 21 12.2761 21 12C21 9.51458 19.9932 7.26527 18.364 5.63604C16.7347 4.00681 14.4854 3 12 3C11.7239 3 11.5 2.77614 11.5 2.5ZM2.5 11.5C2.77614 11.5 3 11.7239 3 12C3 14.4854 4.00681 16.7347 5.63604 18.364C7.26527 19.9932 9.51458 21 12 21C12.2761 21 12.5 21.2239 12.5 21.5C12.5 21.7761 12.2761 22 12 22C9.23871 22 6.73803 20.8802 4.92893 19.0711C3.11984 17.262 2 14.7613 2 12C2 11.7239 2.22386 11.5 2.5 11.5Z"
        fill="black"/>
</svg>
